<svg xmlns="http://www.w3.org/2000/svg" xmlns:xlink="http://www.w3.org/1999/xlink" contentStyleType="text/css" data-diagram-type="DESCRIPTION" height="1098px" preserveAspectRatio="none" style="width:1841px;height:1098px;background:#FFFFFF;" version="1.1" viewBox="0 0 1841 1098" width="1841px" zoomAndPan="magnify"><title>Vue Cas d'Utilisation - Architecture Microservices DDD</title><defs/><g><g class="title" data-source-line="1"><text fill="#000000" font-family="sans-serif" font-size="14" font-weight="bold" lengthAdjust="spacing" textLength="430.5752" x="698.2124" y="22.9951">Vue Cas d'Utilisation - Architecture Microservices DDD</text></g><!--cluster Domaine Catalogue--><g class="cluster" data-entity="Domaine Catalogue" data-source-line="14" data-uid="ent0006" id="cluster_Domaine Catalogue"><path d="M945,831.2969 L1100.1709,831.2969 A3.75,3.75 0 0 1 1102.6709,833.7969 L1109.6709,853.5938 L1831.5,853.5938 A2.5,2.5 0 0 1 1834,856.0938 L1834,931.7969 A2.5,2.5 0 0 1 1831.5,934.2969 L945,934.2969 A2.5,2.5 0 0 1 942.5,931.7969 L942.5,833.7969 A2.5,2.5 0 0 1 945,831.2969" fill="none" style="stroke:#000000;stroke-width:1.5;"/><line style="stroke:#000000;stroke-width:1.5;" x1="942.5" x2="1109.6709" y1="853.5938" y2="853.5938"/><text fill="#000000" font-family="sans-serif" font-size="14" font-weight="bold" lengthAdjust="spacing" textLength="154.1709" x="946.5" y="846.292">Domaine Catalogue</text></g><!--cluster Domaine Inventaire--><g class="cluster" data-entity="Domaine Inventaire" data-source-line="24" data-uid="ent0012" id="cluster_Domaine Inventaire"><path d="M1299.5,242.2969 L1456.0107,242.2969 A3.75,3.75 0 0 1 1458.5107,244.7969 L1465.5107,264.5938 L1814.5,264.5938 A2.5,2.5 0 0 1 1817,267.0938 L1817,403.7969 A2.5,2.5 0 0 1 1814.5,406.2969 L1299.5,406.2969 A2.5,2.5 0 0 1 1297,403.7969 L1297,244.7969 A2.5,2.5 0 0 1 1299.5,242.2969" fill="none" style="stroke:#000000;stroke-width:1.5;"/><line style="stroke:#000000;stroke-width:1.5;" x1="1297" x2="1465.5107" y1="264.5938" y2="264.5938"/><text fill="#000000" font-family="sans-serif" font-size="14" font-weight="bold" lengthAdjust="spacing" textLength="155.5107" x="1301" y="257.292">Domaine Inventaire</text></g><!--cluster Domaine Commandes--><g class="cluster" data-entity="Domaine Commandes" data-source-line="35" data-uid="ent0019" id="cluster_Domaine Commandes"><path d="M539,456.2969 L710.7412,456.2969 A3.75,3.75 0 0 1 713.2412,458.7969 L720.2412,478.5938 L1497.5,478.5938 A2.5,2.5 0 0 1 1500,481.0938 L1500,617.7969 A2.5,2.5 0 0 1 1497.5,620.2969 L539,620.2969 A2.5,2.5 0 0 1 536.5,617.7969 L536.5,458.7969 A2.5,2.5 0 0 1 539,456.2969" fill="none" style="stroke:#000000;stroke-width:1.5;"/><line style="stroke:#000000;stroke-width:1.5;" x1="536.5" x2="720.2412" y1="478.5938" y2="478.5938"/><text fill="#000000" font-family="sans-serif" font-size="14" font-weight="bold" lengthAdjust="spacing" textLength="170.7412" x="540.5" y="471.292">Domaine Commandes</text></g><!--cluster Domaine Supply Chain--><g class="cluster" data-entity="Domaine Supply Chain" data-source-line="46" data-uid="ent0027" id="cluster_Domaine Supply Chain"><path d="M197.5,758.2969 L376.2549,758.2969 A3.75,3.75 0 0 1 378.7549,760.7969 L385.7549,780.5938 L754.5,780.5938 A2.5,2.5 0 0 1 757,783.0938 L757,936.7969 A2.5,2.5 0 0 1 754.5,939.2969 L197.5,939.2969 A2.5,2.5 0 0 1 195,936.7969 L195,760.7969 A2.5,2.5 0 0 1 197.5,758.2969" fill="none" style="stroke:#000000;stroke-width:1.5;"/><line style="stroke:#000000;stroke-width:1.5;" x1="195" x2="385.7549" y1="780.5938" y2="780.5938"/><text fill="#000000" font-family="sans-serif" font-size="14" font-weight="bold" lengthAdjust="spacing" textLength="177.7549" x="199" y="773.292">Domaine Supply Chain</text></g><!--cluster Domaine E-commerce--><g class="cluster" data-entity="Domaine E-commerce" data-source-line="55" data-uid="ent0033" id="cluster_Domaine E-commerce"><path d="M216,43.2969 L388.0693,43.2969 A3.75,3.75 0 0 1 390.5693,45.7969 L397.5693,65.5938 L734,65.5938 A2.5,2.5 0 0 1 736.5,68.0938 L736.5,257.7969 A2.5,2.5 0 0 1 734,260.2969 L216,260.2969 A2.5,2.5 0 0 1 213.5,257.7969 L213.5,45.7969 A2.5,2.5 0 0 1 216,43.2969" fill="none" style="stroke:#000000;stroke-width:1.5;"/><line style="stroke:#000000;stroke-width:1.5;" x1="213.5" x2="397.5693" y1="65.5938" y2="65.5938"/><text fill="#000000" font-family="sans-serif" font-size="14" font-weight="bold" lengthAdjust="spacing" textLength="171.0693" x="217.5" y="58.292">Domaine E-commerce</text></g><!--entity UC01--><g class="entity" data-entity="UC01" data-source-line="15" data-uid="ent0007" id="entity_UC01"><ellipse cx="1409.4939" cy="886.1957" fill="#F1F1F1" rx="84.9939" ry="19.3988" style="stroke:#181818;stroke-width:0.5;"/><text fill="#000000" font-family="sans-serif" font-size="14" lengthAdjust="spacing" textLength="142.3105" x="1338.3386" y="890.8441">Rechercher produits</text></g><!--entity UC02--><g class="entity" data-entity="UC02" data-source-line="16" data-uid="ent0008" id="entity_UC02"><ellipse cx="1719.6227" cy="888.4214" fill="#F1F1F1" rx="98.6227" ry="22.1245" style="stroke:#181818;stroke-width:0.5;"/><text fill="#000000" font-family="sans-serif" font-size="14" lengthAdjust="spacing" textLength="173.0176" x="1633.1139" y="893.0698">Consulter details produit</text></g><!--entity UC03--><g class="entity" data-entity="UC03" data-source-line="17" data-uid="ent0009" id="entity_UC03"><ellipse cx="1031.2427" cy="892.2454" fill="#F1F1F1" rx="72.7427" ry="16.9485" style="stroke:#181818;stroke-width:0.5;"/><text fill="#000000" font-family="sans-serif" font-size="14" lengthAdjust="spacing" textLength="113.21" x="974.6378" y="896.8939">Gerer catalogue</text></g><!--entity UC04--><g class="entity" data-entity="UC04" data-source-line="25" data-uid="ent0013" id="entity_UC04"><ellipse cx="1409.3904" cy="294.475" fill="#F1F1F1" rx="73.8904" ry="17.1781" style="stroke:#181818;stroke-width:0.5;"/><text fill="#000000" font-family="sans-serif" font-size="14" lengthAdjust="spacing" textLength="116.0264" x="1351.3773" y="299.1234">Consulter stocks</text></g><!--entity UC05--><g class="entity" data-entity="UC05" data-source-line="26" data-uid="ent0014" id="entity_UC05"><ellipse cx="1409.6052" cy="368.5179" fill="#F1F1F1" rx="96.6052" ry="21.721" style="stroke:#181818;stroke-width:0.5;"/><text fill="#000000" font-family="sans-serif" font-size="14" lengthAdjust="spacing" textLength="168.5469" x="1325.3318" y="373.1664">Creer demande reappro</text></g><!--entity UC06--><g class="entity" data-entity="UC06" data-source-line="27" data-uid="ent0015" id="entity_UC06"><ellipse cx="1719.6957" cy="373.336" fill="#F1F1F1" rx="73.1957" ry="17.0391" style="stroke:#181818;stroke-width:0.5;"/><text fill="#000000" font-family="sans-serif" font-size="14" lengthAdjust="spacing" textLength="114.3242" x="1662.5336" y="377.9844">Transferer stock</text></g><!--entity UC07--><g class="entity" data-entity="UC07" data-source-line="28" data-uid="ent0016" id="entity_UC07"><ellipse cx="1719.3617" cy="296.4692" fill="#F1F1F1" rx="81.3617" ry="18.6723" style="stroke:#181818;stroke-width:0.5;"/><text fill="#000000" font-family="sans-serif" font-size="14" lengthAdjust="spacing" textLength="133.875" x="1652.4242" y="301.1177">Gerer alertes stock</text></g><!--entity UC08--><g class="entity" data-entity="UC08" data-source-line="36" data-uid="ent0020" id="entity_UC08"><ellipse cx="1030.895" cy="509.4759" fill="#F1F1F1" rx="76.395" ry="17.679" style="stroke:#181818;stroke-width:0.5;"/><text fill="#000000" font-family="sans-serif" font-size="14" lengthAdjust="spacing" textLength="122.0967" x="969.8467" y="514.1243">Enregistrer vente</text></g><!--entity UC09--><g class="entity" data-entity="UC09" data-source-line="37" data-uid="ent0021" id="entity_UC09"><ellipse cx="1409.5633" cy="514.1095" fill="#F1F1F1" rx="74.5633" ry="17.3127" style="stroke:#181818;stroke-width:0.5;"/><text fill="#000000" font-family="sans-serif" font-size="14" lengthAdjust="spacing" textLength="117.667" x="1350.7298" y="518.758">Traiter paiement</text></g><!--entity UC10--><g class="entity" data-entity="UC10" data-source-line="38" data-uid="ent0022" id="entity_UC10"><ellipse cx="635.3302" cy="582.3629" fill="#F1F1F1" rx="75.8302" ry="17.566" style="stroke:#181818;stroke-width:0.5;"/><text fill="#000000" font-family="sans-serif" font-size="14" lengthAdjust="spacing" textLength="120.7363" x="574.9621" y="587.0114">Generer rapports</text></g><!--entity UC11--><g class="entity" data-entity="UC11" data-source-line="39" data-uid="ent0023" id="entity_UC11"><ellipse cx="1030.9006" cy="583.477" fill="#F1F1F1" rx="93.9006" ry="21.1801" style="stroke:#181818;stroke-width:0.5;"/><text fill="#000000" font-family="sans-serif" font-size="14" lengthAdjust="spacing" textLength="162.5176" x="949.6418" y="588.1254">Analyser performances</text></g><!--entity UC20--><g class="entity" data-entity="UC20" data-source-line="40" data-uid="ent0024" id="entity_UC20"><ellipse cx="635.3706" cy="510.271" fill="#F1F1F1" rx="82.8706" ry="18.9741" style="stroke:#181818;stroke-width:0.5;"/><text fill="#000000" font-family="sans-serif" font-size="14" lengthAdjust="spacing" textLength="137.3955" x="566.6728" y="514.9194">Annuler commande</text></g><!--entity UC12--><g class="entity" data-entity="UC12" data-source-line="47" data-uid="ent0028" id="entity_UC12"><ellipse cx="635.2704" cy="899.151" fill="#F1F1F1" rx="104.7704" ry="23.3541" style="stroke:#181818;stroke-width:0.5;"/><text fill="#000000" font-family="sans-serif" font-size="14" lengthAdjust="spacing" textLength="186.5186" x="542.0111" y="903.7994">Valider demandes reappro</text></g><!--entity UC14--><g class="entity" data-entity="UC14" data-source-line="48" data-uid="ent0029" id="entity_UC14"><ellipse cx="312.8502" cy="817.0669" fill="#F1F1F1" rx="101.8502" ry="22.77" style="stroke:#181818;stroke-width:0.5;"/><text fill="#000000" font-family="sans-serif" font-size="14" lengthAdjust="spacing" textLength="180.127" x="222.7867" y="821.7153">Gerer workflow validation</text></g><!--entity UC19--><g class="entity" data-entity="UC19" data-source-line="49" data-uid="ent0030" id="entity_UC19"><ellipse cx="635.4631" cy="817.2895" fill="#F1F1F1" rx="105.4631" ry="23.4926" style="stroke:#181818;stroke-width:0.5;"/><text fill="#000000" font-family="sans-serif" font-size="14" lengthAdjust="spacing" textLength="188.0293" x="541.4484" y="821.9379">Rejeter demandes reappro</text></g><!--entity UC15--><g class="entity" data-entity="UC15" data-source-line="56" data-uid="ent0034" id="entity_UC15"><ellipse cx="312.9563" cy="183.3881" fill="#F1F1F1" rx="83.4563" ry="19.0913" style="stroke:#181818;stroke-width:0.5;"/><text fill="#000000" font-family="sans-serif" font-size="14" lengthAdjust="spacing" textLength="138.7559" x="243.5784" y="188.0366">Creer compte client</text></g><!--entity UC16--><g class="entity" data-entity="UC16" data-source-line="57" data-uid="ent0035" id="entity_UC16"><ellipse cx="313.2359" cy="111.444" fill="#F1F1F1" rx="76.2359" ry="17.6472" style="stroke:#181818;stroke-width:0.5;"/><text fill="#000000" font-family="sans-serif" font-size="14" lengthAdjust="spacing" textLength="121.7139" x="252.3789" y="116.0925">Ajouter au panier</text></g><!--entity UC17--><g class="entity" data-entity="UC17" data-source-line="58" data-uid="ent0036" id="entity_UC17"><ellipse cx="635.2626" cy="108.1494" fill="#F1F1F1" rx="84.7626" ry="19.3525" style="stroke:#181818;stroke-width:0.5;"/><text fill="#000000" font-family="sans-serif" font-size="14" lengthAdjust="spacing" textLength="141.7773" x="564.374" y="112.7978">Finaliser commande</text></g><!--entity UC18--><g class="entity" data-entity="UC18" data-source-line="59" data-uid="ent0037" id="entity_UC18"><ellipse cx="635.7109" cy="199.539" fill="#F1F1F1" rx="76.7109" ry="17.7422" style="stroke:#181818;stroke-width:0.5;"/><text fill="#000000" font-family="sans-serif" font-size="14" lengthAdjust="spacing" textLength="122.8555" x="574.2831" y="204.1875">Gerer profil client</text></g><!--entity WebClient--><g class="entity" data-entity="WebClient" data-source-line="6" data-uid="ent0002" id="entity_WebClient"><ellipse cx="50.6616" cy="81.7969" fill="#F1F1F1" rx="8" ry="8" style="stroke:#181818;stroke-width:0.5;"/><path d="M50.6616,89.7969 L50.6616,116.7969 M37.6616,97.7969 L63.6616,97.7969 M50.6616,116.7969 L37.6616,131.7969 M50.6616,116.7969 L63.6616,131.7969" fill="none" style="stroke:#181818;stroke-width:0.5;"/><text fill="#000000" font-family="sans-serif" font-size="14" lengthAdjust="spacing" textLength="76.3232" x="12.5" y="146.292">Client Web</text></g><!--entity StoreEmployee--><g class="entity" data-entity="StoreEmployee" data-source-line="7" data-uid="ent0003" id="entity_StoreEmployee"><ellipse cx="313.1772" cy="480.7969" fill="#F1F1F1" rx="8" ry="8" style="stroke:#181818;stroke-width:0.5;"/><path d="M313.1772,488.7969 L313.1772,515.7969 M300.1772,496.7969 L326.1772,496.7969 M313.1772,515.7969 L300.1772,530.7969 M313.1772,515.7969 L326.1772,530.7969" fill="none" style="stroke:#181818;stroke-width:0.5;"/><text fill="#000000" font-family="sans-serif" font-size="14" lengthAdjust="spacing" textLength="123.3545" x="251.5" y="545.292">Employe Magasin</text></g><!--entity Admin--><g class="entity" data-entity="Admin" data-source-line="8" data-uid="ent0004" id="entity_Admin"><ellipse cx="50.6421" cy="694.7969" fill="#F1F1F1" rx="8" ry="8" style="stroke:#181818;stroke-width:0.5;"/><path d="M50.6421,702.7969 L50.6421,729.7969 M37.6421,710.7969 L63.6421,710.7969 M50.6421,729.7969 L37.6421,744.7969 M50.6421,729.7969 L63.6421,744.7969" fill="none" style="stroke:#181818;stroke-width:0.5;"/><text fill="#000000" font-family="sans-serif" font-size="14" lengthAdjust="spacing" textLength="89.2842" x="6" y="759.292">Gestionnaire</text></g><!--link Admin to StoreEmployee--><g class="link" data-entity-1="Admin" data-entity-2="StoreEmployee" data-source-line="11" data-uid="lnk5" id="link_Admin_StoreEmployee"><path d="M75.52,686.2069 C88.68,667.1569 106.13,644.5469 125,627.2969 C163.01,592.5369 196.916,570.6594 235.516,549.4994" fill="none" id="Admin-to-StoreEmployee" style="stroke:#181818;stroke-width:1;"/><polygon fill="none" points="251.3,540.8469,232.6319,544.2381,238.4002,554.7607,251.3,540.8469" style="stroke:#181818;stroke-width:1;"/><text fill="#000000" font-family="sans-serif" font-size="13" lengthAdjust="spacing" textLength="52.0508" x="126" y="582.3638">extends</text></g><!--link UC01 to UC02--><g class="link" data-entity-1="UC01" data-entity-2="UC02" data-source-line="19" data-uid="lnk10" id="link_UC01_UC02"><path d="M1494.66,886.8369 C1533.67,887.0969 1574.2601,887.3584 1614.8101,887.6184" fill="none" id="UC01-to-UC02" style="stroke:#181818;stroke-width:1;stroke-dasharray:7.0,7.0;"/><polygon fill="#181818" points="1620.81,887.6569,1611.8358,883.5993,1615.8101,887.6248,1611.7845,891.5991,1620.81,887.6569" style="stroke:#181818;stroke-width:1;"/><text fill="#000000" font-family="sans-serif" font-size="13" lengthAdjust="spacing" textLength="53.8726" x="1537" y="883.3638">includes</text></g><!--link UC03 to UC01--><g class="link" data-entity-1="UC03" data-entity-2="UC01" data-source-line="20" data-uid="lnk11" id="link_UC03_UC01"><path d="M1103.7,891.1469 C1166.64,890.1469 1252.2408,888.7827 1318.5808,887.7227" fill="none" id="UC03-to-UC01" style="stroke:#181818;stroke-width:1;stroke-dasharray:7.0,7.0;"/><polygon fill="#181818" points="1324.58,887.6269,1315.5172,883.7712,1319.5806,887.7068,1315.6451,891.7702,1324.58,887.6269" style="stroke:#181818;stroke-width:1;"/><text fill="#000000" font-family="sans-serif" font-size="13" lengthAdjust="spacing" textLength="53.8726" x="1191.5" y="885.3638">includes</text></g><!--link UC04 to UC07--><g class="link" data-entity-1="UC04" data-entity-2="UC07" data-source-line="30" data-uid="lnk17" id="link_UC04_UC07"><path d="M1483.49,294.7669 C1529.92,295.0669 1584.0801,295.418 1631.9101,295.728" fill="none" id="UC04-to-UC07" style="stroke:#181818;stroke-width:1;stroke-dasharray:7.0,7.0;"/><polygon fill="#181818" points="1637.91,295.7669,1628.9361,291.7086,1632.9101,295.7345,1628.8843,299.7085,1637.91,295.7669" style="stroke:#181818;stroke-width:1;"/><text fill="#000000" font-family="sans-serif" font-size="13" lengthAdjust="spacing" textLength="53.8726" x="1537" y="291.3638">includes</text></g><!--link UC05 to UC06--><g class="link" data-entity-1="UC05" data-entity-2="UC06" data-source-line="31" data-uid="lnk18" id="link_UC05_UC06"><path d="M1505.84,369.8369 C1551.25,370.5769 1598.6508,371.3496 1640.5808,372.0296" fill="none" id="UC05-to-UC06" style="stroke:#181818;stroke-width:1;stroke-dasharray:7.0,7.0;"/><polygon fill="#181818" points="1646.58,372.1269,1637.646,367.9815,1641.5807,372.0458,1637.5163,375.9804,1646.58,372.1269" style="stroke:#181818;stroke-width:1;"/><text fill="#000000" font-family="sans-serif" font-size="13" lengthAdjust="spacing" textLength="53.8726" x="1537" y="367.3638">includes</text></g><!--link UC08 to UC09--><g class="link" data-entity-1="UC08" data-entity-2="UC09" data-source-line="41" data-uid="lnk25" id="link_UC08_UC09"><path d="M1107.74,510.2969 C1173.88,511.1769 1263.2805,512.3672 1328.8105,513.2372" fill="none" id="UC08-to-UC09" style="stroke:#181818;stroke-width:1;stroke-dasharray:7.0,7.0;"/><polygon fill="#181818" points="1334.81,513.3169,1325.8639,509.1978,1329.8104,513.2505,1325.7577,517.197,1334.81,513.3169" style="stroke:#181818;stroke-width:1;"/><text fill="#000000" font-family="sans-serif" font-size="13" lengthAdjust="spacing" textLength="53.8726" x="1191.5" y="507.3638">includes</text></g><!--link UC10 to UC11--><g class="link" data-entity-1="UC10" data-entity-2="UC11" data-source-line="42" data-uid="lnk26" id="link_UC10_UC11"><path d="M711.91,582.4869 C775.95,582.6469 862.15,582.8611 930.81,583.0411" fill="none" id="UC10-to-UC11" style="stroke:#181818;stroke-width:1;stroke-dasharray:7.0,7.0;"/><polygon fill="#181818" points="936.81,583.0569,927.8205,579.0333,931.81,583.0438,927.7995,587.0333,936.81,583.0569" style="stroke:#181818;stroke-width:1;"/><text fill="#000000" font-family="sans-serif" font-size="13" lengthAdjust="spacing" textLength="53.8726" x="813.5" y="579.3638">includes</text></g><!--link UC14 to UC19--><g class="link" data-entity-1="UC14" data-entity-2="UC19" data-source-line="50" data-uid="lnk31" id="link_UC14_UC19"><path d="M415.41,817.2969 C451.9,817.2969 487.13,817.2969 523.89,817.2969" fill="none" id="UC14-to-UC19" style="stroke:#181818;stroke-width:1;stroke-dasharray:7.0,7.0;"/><polygon fill="#181818" points="529.89,817.2969,520.89,813.2969,524.89,817.2969,520.89,821.2969,529.89,817.2969" style="stroke:#181818;stroke-width:1;"/><text fill="#000000" font-family="sans-serif" font-size="13" lengthAdjust="spacing" textLength="53.8726" x="446" y="813.3638">includes</text></g><!--link UC14 to UC12--><g class="link" data-entity-1="UC14" data-entity-2="UC12" data-source-line="51" data-uid="lnk32" id="link_UC14_UC12"><path d="M381.19,834.4869 C435.34,848.3369 505.3673,866.2496 559.9273,880.2096" fill="none" id="UC14-to-UC12" style="stroke:#181818;stroke-width:1;stroke-dasharray:7.0,7.0;"/><polygon fill="#181818" points="565.74,881.6969,558.0124,875.5908,560.896,880.4575,556.0294,883.3411,565.74,881.6969" style="stroke:#181818;stroke-width:1;"/><text fill="#000000" font-family="sans-serif" font-size="13" lengthAdjust="spacing" textLength="53.8726" x="446" y="847.3638">includes</text></g><!--link UC15 to UC18--><g class="link" data-entity-1="UC15" data-entity-2="UC18" data-source-line="61" data-uid="lnk38" id="link_UC15_UC18"><path d="M367.1,197.8069 C390.75,203.5469 419.07,209.4569 445,212.2969 C487.29,216.9169 529.1229,214.2933 566.1229,209.8433" fill="none" id="UC15-to-UC18" style="stroke:#181818;stroke-width:1;stroke-dasharray:7.0,7.0;"/><polygon fill="#181818" points="572.08,209.1269,562.6668,206.2302,567.1158,209.7239,563.622,214.1729,572.08,209.1269" style="stroke:#181818;stroke-width:1;"/><text fill="#000000" font-family="sans-serif" font-size="13" lengthAdjust="spacing" textLength="53.8726" x="446" y="208.3638">includes</text></g><!--link UC18 to UC15--><g class="link" data-entity-1="UC18" data-entity-2="UC15" data-source-line="63" data-uid="lnk40" id="link_UC18_UC15"><path d="M561.57,194.7369 C541.61,193.5469 519.97,192.3169 500,191.2969 C465.78,189.5369 434.0048,188.1177 401.4948,186.7577" fill="none" id="UC18-to-UC15" style="stroke:#181818;stroke-width:1;stroke-dasharray:7.0,7.0;"/><polygon fill="#181818" points="395.5,186.5069,404.3249,190.8796,400.4956,186.7159,404.6593,182.8865,395.5,186.5069" style="stroke:#181818;stroke-width:1;"/><text fill="#000000" font-family="sans-serif" font-size="13" lengthAdjust="spacing" textLength="53.8726" x="446" y="185.3638">includes</text></g><!--link UC16 to UC17--><g class="link" data-entity-1="UC16" data-entity-2="UC17" data-source-line="62" data-uid="lnk39" id="link_UC16_UC17"><path d="M389.14,110.5869 C437.53,110.1369 494.4903,109.6032 544.5203,109.1332" fill="none" id="UC16-to-UC17" style="stroke:#181818;stroke-width:1;stroke-dasharray:7.0,7.0;"/><polygon fill="#181818" points="550.52,109.0769,541.4828,105.1616,545.5202,109.1238,541.558,113.1612,550.52,109.0769" style="stroke:#181818;stroke-width:1;"/><text fill="#000000" font-family="sans-serif" font-size="13" lengthAdjust="spacing" textLength="53.8726" x="446" y="106.3638">includes</text></g><!--link WebClient to UC15--><g class="link" data-entity-1="WebClient" data-entity-2="UC15" data-source-line="69" data-uid="lnk41" id="link_WebClient_UC15"><path d="M88.55,121.5269 C133.22,133.8769 202.8167,153.1191 253.5267,167.1291" fill="none" id="WebClient-to-UC15" style="stroke:#181818;stroke-width:1;"/><polygon fill="#181818" points="259.31,168.7269,251.7002,162.4746,254.4905,167.3954,249.5698,170.1857,259.31,168.7269" style="stroke:#181818;stroke-width:1;"/></g><!--link WebClient to UC16--><g class="link" data-entity-1="WebClient" data-entity-2="UC16" data-source-line="70" data-uid="lnk42" id="link_WebClient_UC16"><path d="M88.55,111.2969 C127.03,111.2969 182.32,111.2969 230.99,111.2969" fill="none" id="WebClient-to-UC16" style="stroke:#181818;stroke-width:1;"/><polygon fill="#181818" points="236.99,111.2969,227.99,107.2969,231.99,111.2969,227.99,115.2969,236.99,111.2969" style="stroke:#181818;stroke-width:1;"/></g><!--link WebClient to UC17--><g class="link" data-entity-1="WebClient" data-entity-2="UC17" data-source-line="71" data-uid="lnk43" id="link_WebClient_UC17"><path d="M88.84,96.4969 C100.3,92.3869 113.04,88.2469 125,85.2969 C152.03,78.6169 159.23,78.2969 187,76.2969 C325.81,66.2669 362.14,66.2269 500,85.2969 C522.41,88.3869 540.9083,91.3513 562.6983,95.1313" fill="none" id="WebClient-to-UC17" style="stroke:#181818;stroke-width:1;"/><polygon fill="#181818" points="568.61,96.1569,560.4261,90.6774,563.6836,95.3023,559.0588,98.5597,568.61,96.1569" style="stroke:#181818;stroke-width:1;"/></g><!--link StoreEmployee to UC04--><g class="link" data-entity-1="StoreEmployee" data-entity-2="UC04" data-source-line="74" data-uid="lnk44" id="link_StoreEmployee_UC04"><path d="M374.64,477.6969 C416.66,456.5569 474.54,430.2669 528.5,415.2969 C821.43,334.0269 1179.0294,306.5028 1330.7694,297.9928" fill="none" id="StoreEmployee-to-UC04" style="stroke:#181818;stroke-width:1;"/><polygon fill="#181818" points="1336.76,297.6569,1327.5501,294.1671,1331.7678,297.9368,1327.9981,302.1546,1336.76,297.6569" style="stroke:#181818;stroke-width:1;"/></g><!--link StoreEmployee to UC05--><g class="link" data-entity-1="StoreEmployee" data-entity-2="UC05" data-source-line="75" data-uid="lnk45" id="link_StoreEmployee_UC05"><path d="M374.75,496.3169 C512.55,465.4469 859.82,392.2469 1155,368.2969 C1207.53,364.0269 1260.3811,363.6426 1308.1511,364.5526" fill="none" id="StoreEmployee-to-UC05" style="stroke:#181818;stroke-width:1;"/><polygon fill="#181818" points="1314.15,364.6669,1305.2278,360.4962,1309.1509,364.5716,1305.0754,368.4947,1314.15,364.6669" style="stroke:#181818;stroke-width:1;"/></g><!--link StoreEmployee to UC08--><g class="link" data-entity-1="StoreEmployee" data-entity-2="UC08" data-source-line="76" data-uid="lnk46" id="link_StoreEmployee_UC08"><path d="M371.73,548.3269 C413.38,573.4069 471.99,603.9769 528.5,617.2969 C692.63,655.9569 768.91,688.0569 907,591.2969 C926.82,577.4069 915.93,559.8169 934.5,544.2969 C946.56,534.2069 956.1163,528.9156 970.8363,523.6856" fill="none" id="StoreEmployee-to-UC08" style="stroke:#181818;stroke-width:1;"/><polygon fill="#181818" points="976.49,521.6769,966.6702,520.9209,971.7785,523.3508,969.3486,528.4592,976.49,521.6769" style="stroke:#181818;stroke-width:1;"/></g><!--link StoreEmployee to UC20--><g class="link" data-entity-1="StoreEmployee" data-entity-2="UC20" data-source-line="77" data-uid="lnk47" id="link_StoreEmployee_UC20"><path d="M374.66,510.2969 C424.93,510.2969 490.86,510.2969 546.3,510.2969" fill="none" id="StoreEmployee-to-UC20" style="stroke:#181818;stroke-width:1;"/><polygon fill="#181818" points="552.3,510.2969,543.3,506.2969,547.3,510.2969,543.3,514.2969,552.3,510.2969" style="stroke:#181818;stroke-width:1;"/></g><!--link Admin to UC03--><g class="link" data-entity-1="Admin" data-entity-2="UC03" data-source-line="80" data-uid="lnk48" id="link_Admin_UC03"><path d="M62.71,762.2969 C80.02,813.2269 118.62,901.5669 187,939.2969 C463.25,1091.7269 865.3344,956.7624 988.1244,909.2424" fill="none" id="Admin-to-UC03" style="stroke:#181818;stroke-width:1;"/><polygon fill="#181818" points="993.72,907.0769,983.883,906.5947,989.057,908.8815,986.7703,914.0555,993.72,907.0769" style="stroke:#181818;stroke-width:1;"/></g><!--link Admin to UC10--><g class="link" data-entity-1="Admin" data-entity-2="UC10" data-source-line="81" data-uid="lnk49" id="link_Admin_UC10"><path d="M95.15,707.9169 C104.9,704.5169 115.25,701.1169 125,698.2969 C286.42,651.5369 475.1295,612.8481 570.3595,594.3981" fill="none" id="Admin-to-UC10" style="stroke:#181818;stroke-width:1;"/><polygon fill="#181818" points="576.25,593.2569,566.6535,591.0417,571.3413,594.2079,568.1751,598.8957,576.25,593.2569" style="stroke:#181818;stroke-width:1;"/></g><!--link Admin to UC11--><g class="link" data-entity-1="Admin" data-entity-2="UC11" data-source-line="82" data-uid="lnk50" id="link_Admin_UC11"><path d="M95.17,728.0969 C223.51,737.7769 609.2,756.2169 907,659.2969 C944,647.2469 976.5138,625.5715 1000.1838,607.4715" fill="none" id="Admin-to-UC11" style="stroke:#181818;stroke-width:1;"/><polygon fill="#181818" points="1004.95,603.8269,995.3709,606.1163,1000.9782,606.8641,1000.2304,612.4713,1004.95,603.8269" style="stroke:#181818;stroke-width:1;"/></g><!--link Admin to UC14--><g class="link" data-entity-1="Admin" data-entity-2="UC14" data-source-line="83" data-uid="lnk51" id="link_Admin_UC14"><path d="M95.1,739.8569 C139.71,755.7869 203.4895,778.5491 251.7395,795.7791" fill="none" id="Admin-to-UC14" style="stroke:#181818;stroke-width:1;"/><polygon fill="#181818" points="257.39,797.7969,250.2594,791.0032,252.6812,796.1154,247.569,798.5372,257.39,797.7969" style="stroke:#181818;stroke-width:1;"/></g><!--link UC08 to UC04--><g class="link" data-entity-1="UC08" data-entity-2="UC04" data-source-line="86" data-uid="lnk52" id="link_UC08_UC04"><path d="M1056.48,492.5569 C1117.21,451.0269 1270.66,345.9169 1281,337.2969 C1284.86,334.0769 1284.67,331.8569 1289,329.2969 C1307.97,318.0469 1324.9833,311.7177 1345.5833,306.3577" fill="none" id="UC08-to-UC04" style="stroke:#181818;stroke-width:1;stroke-dasharray:7.0,7.0;"/><polygon fill="#181818" points="1351.39,304.8469,1341.6728,303.2421,1346.5511,306.1059,1343.6872,310.9843,1351.39,304.8469" style="stroke:#181818;stroke-width:1;"/><text fill="#000000" font-family="sans-serif" font-size="13" lengthAdjust="spacing" textLength="104.2031" x="1166" y="333.3638">Reduction stock</text></g><!--link UC17 to UC04--><g class="link" data-entity-1="UC17" data-entity-2="UC04" data-source-line="87" data-uid="lnk53" id="link_UC17_UC04"><path d="M694.84,122.3469 C840.79,157.5169 1214.0169,247.4314 1351.7269,280.6114" fill="none" id="UC17-to-UC04" style="stroke:#181818;stroke-width:1;stroke-dasharray:7.0,7.0;"/><polygon fill="#181818" points="1357.56,282.0169,1349.7473,276.02,1352.6991,280.8457,1347.8734,283.7975,1357.56,282.0169" style="stroke:#181818;stroke-width:1;"/><text fill="#000000" font-family="sans-serif" font-size="13" lengthAdjust="spacing" textLength="112.6836" x="975" y="179.3638">Verification stock</text></g><!--link UC17 to UC08--><g class="link" data-entity-1="UC17" data-entity-2="UC08" data-source-line="88" data-uid="lnk54" id="link_UC17_UC08"><path d="M696.27,121.9469 C720.75,130.3669 747.39,143.6469 765,164.2969 C774.23,175.1169 766.57,182.5969 773,195.2969 C838.3,324.0969 959.4328,443.8739 1006.8528,488.1139" fill="none" id="UC17-to-UC08" style="stroke:#181818;stroke-width:1;stroke-dasharray:7.0,7.0;"/><polygon fill="#181818" points="1011.24,492.2069,1007.3879,483.1426,1007.584,488.7961,1001.9306,488.9922,1011.24,492.2069" style="stroke:#181818;stroke-width:1;"/><text fill="#000000" font-family="sans-serif" font-size="13" lengthAdjust="spacing" textLength="132.3042" x="774" y="191.3638">Creation commande</text></g><!--link UC12 to UC06--><g class="link" data-entity-1="UC12" data-entity-2="UC06" data-source-line="89" data-uid="lnk55" id="link_UC12_UC06"><path d="M719.79,885.2169 C882.17,857.4969 1229.69,796.6569 1281,775.2969 C1490.02,688.2469 1658.8238,459.8693 1703.6838,395.0993" fill="none" id="UC12-to-UC06" style="stroke:#181818;stroke-width:1;stroke-dasharray:7.0,7.0;"/><polygon fill="#181818" points="1707.1,390.1669,1698.6873,395.2881,1704.2531,394.2773,1705.2639,399.8431,1707.1,390.1669" style="stroke:#181818;stroke-width:1;"/><text fill="#000000" font-family="sans-serif" font-size="13" lengthAdjust="spacing" textLength="124.7632" x="1156" y="771.3638">Execution transfert</text></g><!--link UC10 to UC08--><g class="link" data-entity-1="UC10" data-entity-2="UC08" data-source-line="90" data-uid="lnk56" id="link_UC10_UC08"><path d="M695.41,571.3669 C769.7,557.5769 890.7807,535.1213 965.1107,521.3313" fill="none" id="UC10-to-UC08" style="stroke:#181818;stroke-width:1;stroke-dasharray:7.0,7.0;"/><polygon fill="#181818" points="971.01,520.2369,961.4314,517.9457,966.0939,521.1489,962.8906,525.8115,971.01,520.2369" style="stroke:#181818;stroke-width:1;"/><text fill="#000000" font-family="sans-serif" font-size="13" lengthAdjust="spacing" textLength="105.1426" x="787.5" y="529.3638">Donnees ventes</text></g><!--link UC11 to UC01--><g class="link" data-entity-1="UC11" data-entity-2="UC01" data-source-line="91" data-uid="lnk57" id="link_UC11_UC01"><path d="M1066.34,602.9169 C1116.02,632.0369 1209.79,689.7969 1281,750.2969 C1325.15,787.7969 1366.0684,834.7296 1388.9884,862.3496" fill="none" id="UC11-to-UC01" style="stroke:#181818;stroke-width:1;stroke-dasharray:7.0,7.0;"/><polygon fill="#181818" points="1392.82,866.9669,1390.1508,857.4866,1389.627,863.1192,1383.9945,862.5954,1392.82,866.9669" style="stroke:#181818;stroke-width:1;"/><text fill="#000000" font-family="sans-serif" font-size="13" lengthAdjust="spacing" textLength="114.8672" x="1161" y="655.3638">Donnees produits</text></g><!--link UC20 to UC06--><g class="link" data-entity-1="UC20" data-entity-2="UC06" data-source-line="92" data-uid="lnk58" id="link_UC20_UC06"><path d="M707.45,500.8069 C767.76,492.9569 856.7,481.9069 934.5,474.2969 C1088.2,459.2469 1127.72,467.1369 1281,448.2969 C1419.63,431.2469 1575.3846,401.9137 1657.9546,385.5437" fill="none" id="UC20-to-UC06" style="stroke:#181818;stroke-width:1;stroke-dasharray:7.0,7.0;"/><polygon fill="#181818" points="1663.84,384.3769,1654.2339,382.2035,1658.9355,385.3492,1655.7897,390.0507,1663.84,384.3769" style="stroke:#181818;stroke-width:1;"/><text fill="#000000" font-family="sans-serif" font-size="13" lengthAdjust="spacing" textLength="97.1636" x="1169.5" y="444.3638">Remet le stock</text></g><!--SRC=[VPRRJXin48Rlzob6t1HKfMLfWD0Bf2YXXujA5L1wxNedYOjZRtsWeBOFn7tVW1VhsBlE7YaIe9tvxV5-diCwuIJ2ZKTOC0l5YozEI66P4rh11EQ6RuH3xhn1-2IuqHRDdU1eORbSPfd4bGEdmOZrna4X34bfPPQzW3btw8s5qWZ5HSdyVSQuqmRs5bAWSl0Ll-q1nQJ_bINvBxQbr0yKZwsP5IgAhiY3jGEJy3tQ44qnYXjLys8hOl0FJuz6EBP6AEYevkclH9j5Bqmcly-xsy5Rm7k7gh1XwL9lcL01XsDIhmdCVltE4vvC1rd9-6tOVcyWtuDV6T2FjyYP9SKbyWsQy4iiTE65i_6mNnQ7ULUvqCfwwKXOe6D2shGWwO-w-lTeICkRo9NgJLJ5Fo46l7fr7XVJUz9LI4z8alDDSkPjvvysXu_gZkuc86v0Y9rjX4IpO82YUK7hDB_TSPZsP0OZWorJ1O91LXA7f3tkQgyDKtOLGSGza-na31MJQ1mbH4Tvsi4rJKHEHt0T9-V9ixWMUXkFRLjfaqnZQPDy0rONok1QM1VE7O3khdSs0202qP89t98koSxw05H4O0YcDhiKp0-xihbYyi66xT2ijA6pSTnfyxvMUHaIi7w7MdPqc73D4gwp8Slyi7RcpwVUbIzB-G2B3JqrE6sqJdYmZX1jBnf0lM5I54rksLvovQC5zbERsvNKF-4kh8wjCUcd_LB_Zku_sv-bbqzPbe-HsJcFdYLp4PEAkaghA36PHg0q-c5Dnc8ZT-aGU6p4wRYzKfj_rpwy7VEKR4gWIRfUhRqJb4J23ZCZFnt3ItnMGlP2pzf5cQUwosSZk4wISwHYyvI2j4MVvINAU9SMM3sg9jHBmmpqpGmCmcPUmNu3yY3R3IwQALMCeUbaQ3eDU_Pc7EmNHjDWeCo1RyJc8EjEg6efzSbHy_6uUJPgflAa-EtH-ReQZFkRE3IhaLaV1-FQfqTucIon-fuUjtMBfvwMnkfvDNlQZzHTEezvzt7QlGP1JSvCYYfbBN0wZFZXGoSDpBqIlFei-N1z_VaWQ_UNALtk9HO-VdnKtJsB2T7otw0HgxJ5K18oYqgXSgUypM8Hjdh-nJro7oMkdZikQ_MokCkIi2ATEZPjcyKErvgooPs-1R9m9UqObzJ67T17MJpaFm00]--></g></svg>